<svg xmlns="http://www.w3.org/2000/svg" width="547.581" height="572.785" viewBox="0 0 547.581 572.785"><g transform="translate(347.962 -559)"><path d="M127.69,278.181c1.052-3.417,2.4-6.741,3.173-10.252,1.878-8.356,1.972-16.524-1.99-24.41l3.136-1.446a10.891,10.891,0,0,1,12.674,2.591,15.4,15.4,0,0,1,4.563,12.937c-.375,3.755-.695,7.68-1.145,11.491a150.591,150.591,0,0,0-.807,24.166,61.107,61.107,0,0,1-.319,6.14,7.4,7.4,0,0,1-.845,2.948c-1.652,3-4.244,3.755-6.985,1.652a17.35,17.35,0,0,1-6.44-10.628,97.112,97.112,0,0,0-3.192-11.867,10.516,10.516,0,0,0-1.821-3.323Z" transform="translate(-267.879 773.246)" fill="#6395ce"/><path d="M800.393,121.619c-4.525-3.117-8.9-6.422-13.275-9.745l-.62,1a343.489,343.489,0,0,1-23.152,34.963c-2.272,2.948-4.187,6.178-6.628,8.994-1.99,2.291-2.028,2.291-3.943,0a165.2,165.2,0,0,1-11.98-17.462,88.9,88.9,0,0,0-14.684-18.777,50.172,50.172,0,0,0-29.648-14.233,109.807,109.807,0,0,0-19.246,0c-1.126,4.713-2.1,9.388-5.464,13.294A11.266,11.266,0,0,1,656.9,122c-4.45-2.61-6.44-6.741-7.511-11.51-.263-1.239-.45-2.5-.676-3.755-6.272-.3-12.524-1.164-18.777-1a6.592,6.592,0,0,1-3.568-1.183A113.658,113.658,0,0,0,607.1,95.82c-9.013-3.173-16.9-8.712-25.461-12.637-1.333-.6-1.446-1.483-1.2-2.8,2.028-10.834,3.962-21.706,6.009-32.54s5.051-21.5,6.741-32.39a1.824,1.824,0,0,1,.094-.714c-7.511-.526-15.021-1.014-22.532-1.972q-.225.451-.451.958c-4.319,10.158-8.375,20.429-11.736,30.944-3,9.388-6.121,18.777-9.576,28.165a104.356,104.356,0,0,0-5.239,17.293,18.778,18.778,0,0,0,1.164,11.266,61.285,61.285,0,0,0,10.233,15.3c10.947,12.749,22.945,22.532,36.258,32.653a26.87,26.87,0,0,1,5.37,4.938c6.2,8.187,5.915,27.433,6.8,37.666.92,10.815-9.388,20.185-10.985,30.606a29.067,29.067,0,0,0,3.962,18.965,51.541,51.541,0,0,0,15.416,16.6,71.785,71.785,0,0,0,31.132,10.29,78.021,78.021,0,0,0,18.777,0c10.515-1.5,19.209-6.853,27.264-13.444.789-.638,1.558-1.333,2.328-1.99,1.39-1.878,2.854-3.643,4.131-5.633a35.243,35.243,0,0,0,5.3-25.03c-1.878-13.238-.582-26.288.826-39.525a4.544,4.544,0,0,1,3.192-4.319c1.99-.676,2.742.976,3.755,1.99q11.435,11.266,23.64,21.481a64.672,64.672,0,0,0,13.557,8.712,13.838,13.838,0,0,0,14.533-1.333,23.338,23.338,0,0,0,7.079-8c5.107-8.75,10.384-17.387,14.777-26.55,4.6-9.595,9.52-19.04,14.158-28.616a87.948,87.948,0,0,0,7.849-22.175C802.928,123.234,801.632,122.464,800.393,121.619Z" transform="translate(-614.276 570.214)" fill="#00bb79"/><path d="M305.387,100.67a26.626,26.626,0,0,0-10.346-5.915,35.676,35.676,0,0,0-24.616.657c-12.261,5.051-20.655,16.618-32.465,22.776s-25.537,6.609-36.07,14.12c-6.234,4.506-10.966,11.266-18.157,14.045a29.724,29.724,0,0,1-15.3.714C154.4,144.7,140.151,137.041,134.8,123.859c-3.755-8.994-2.873-19.641-8.036-27.865-3.248-5.182-8.675-9.013-10.8-14.759-3-8.13,1.54-16.9,3.192-25.368A36.577,36.577,0,0,0,112.905,27.4,33.16,33.16,0,0,0,87.237,14.015s-7.21-.77-18.27,5.314c-13.707,9.388-18.345,28.3-15.435,44.708s11.942,30.982,21.03,44.952S93.115,137.153,97.1,153.339a13.013,13.013,0,0,1,0,7.886c-1.127,2.8-3.755,4.525-6.215,6.365C69.906,183.8,69.043,215.359,53.458,236.8c-5.051,6.947-11.585,12.731-16.655,19.659-6.178,8.45-9.67,19.3-4.92,29.254a24.6,24.6,0,0,0,21.8,13.876h1.089c3.755-.244,7.4-1.371,11.135-1.427a39.9,39.9,0,0,1,11.06,1.878,418.017,418.017,0,0,1,43.6,13.763c14.815,5.9,29.01,13.5,44.388,17.688s32.69,4.525,46.4-3.586c11.811-7,19.641-19.791,22.063-33.31a68.648,68.648,0,0,0-5.971-40.089c-4.15-9.069-9.858-17.444-12.9-26.926s-2.835-20.9,3.906-28.165c3.755-4.187,9.276-6.5,14.233-9.388a71.164,71.164,0,0,0,19.34-16A91.8,91.8,0,0,1,261,163.76c6.328-5.633,14.777-8.036,22.213-12.055a58.546,58.546,0,0,0,21.593-20.26c5.182-8.281,9.388-18.383,3.324-27.4A20.9,20.9,0,0,0,305.387,100.67Z" transform="translate(-353.908 573.943)" fill="#1321b4"/><path d="M224.809,358.218c-.638.958-1.3,1.878-1.878,2.873A27.621,27.621,0,0,1,191.18,373.8a26.172,26.172,0,0,1-7.511-2.873c-4.3-2.8-8.468-2.122-12.787-.376-4.187,1.089-8.374,2.216-12.58,3.23a2.178,2.178,0,0,0-1.878,2.479,32.785,32.785,0,0,1-5.164,17.369.943.943,0,0,0-.3.206c-8.994,13.519-27.79,11.642-37.91,2.122-3.079-2.892-5.915-6.065-8.9-9.069-2.178-2.178-4.337-4.375-6.609-6.44a70.918,70.918,0,0,0-17.669-12.186A244.707,244.707,0,0,1,45.528,349.28a78.075,78.075,0,0,1-20.486-20.091c-8.13-11.623-9.726-24.41-6.328-37.854A73.718,73.718,0,0,1,29.68,267.714c4.488-6.572,8.881-13.144,13.745-19.509a233.809,233.809,0,0,0,24.954-41.065c4.337-8.881,8.844-17.65,13.839-26.288.451-.77.807-1.6,1.2-2.4a74.487,74.487,0,0,0,7.83-14.5c2.159-4.938,4.15-9.971,7.774-14.083l3.3,2.629a80.515,80.515,0,0,0,27.7,15.416c14.477,4.356,29.1,8.168,44.257,9.482a7.079,7.079,0,0,1,4.713,1.258,6.869,6.869,0,0,0,0,1.521c1.99,11.022,4.093,22.006,5.032,33.179.582,15.341-3.455,29.743-9.2,43.75-2.2,5.333-4.9,10.459-7.21,15.754A32.54,32.54,0,0,0,165.1,291.3a81.3,81.3,0,0,1,.15,27.227c-.413,2.234-.169,2.234,2.216,2.141a99.518,99.518,0,0,0,29.8-5.633,33.8,33.8,0,0,1,9.088-1.577A20.373,20.373,0,0,1,224.715,322c.394.507.864.939,1.277,1.408,3.962,7.867,3.755,16.035,1.99,24.41C227.269,351.477,225.861,354.782,224.809,358.218ZM98.91,279.674c-2.648,2.572-4.563,4.45-6.516,6.29s-3.849,3.38-5.633,5.182a6.2,6.2,0,0,0,0,9.614c2.723,2.7,5.426,5.445,8.168,8.13s3.023,2.4,4.356-.845a3.887,3.887,0,0,0,.394-1.878,162.022,162.022,0,0,1-.77-26.494Z" transform="translate(-364.999 693.208)" fill="#e17c37"/><path d="M131.245,77.064a3.38,3.38,0,0,0-2.4-2.648,1.483,1.483,0,0,0-.807,0,1.878,1.878,0,0,0-.883.826,15.135,15.135,0,0,1-2.779,3.924c-1.277,1-3.492,1.052-4.225-.376-.15-.319-.3-.751-.657-.826s-.526.15-.732.338a77.793,77.793,0,0,1-15.491,10.834c-.207.113-.432.263-.432.488a.769.769,0,0,0,.282.507,3.136,3.136,0,0,1,0,3.136c-1.352,2.948-3.267,6.121-6.422,6.7a3.417,3.417,0,0,0-1.427.432,2.478,2.478,0,0,0-.77,1.277,15.416,15.416,0,0,0,4.244,15.359,10.215,10.215,0,0,0,8.149,3.023,10.741,10.741,0,0,0,5.182-2.366c3.868-3.042,9.388-8.825,5.99-12.055-5.746-5.333-1.878-18.082,4.957-21.556a10.364,10.364,0,0,1,2.648-.695A7.4,7.4,0,0,0,131,79.768a4.225,4.225,0,0,0,.244-2.7Z" transform="translate(-297.515 626.934)" fill="#d77062"/><path d="M88.55,290.477a32.784,32.784,0,0,0,5.164-17.369,2.178,2.178,0,0,1,1.878-2.479c4.206-1.014,8.393-2.141,12.581-3.23,3.868,2.986,4.807,7.21,4.6,11.679a126.566,126.566,0,0,1-1.521,12.975,101.849,101.849,0,0,0-.563,14.177c0,3.061.225,6.14.282,9.219a9.2,9.2,0,0,1-1.6,5.821,4.037,4.037,0,0,1-6.027,1.07,14.458,14.458,0,0,1-5.971-9.576,47.562,47.562,0,0,0-8.431-20.824C88.625,291.585,88.663,291.059,88.55,290.477Z" transform="translate(-302.232 796.363)" fill="#6395ce"/><path d="M163.735,135.617a7.98,7.98,0,0,0,0-8.694,33.967,33.967,0,0,1-4.713-15.284,94.163,94.163,0,0,1,.282-11.51c.15-3.755-1.258-5.389-5.07-5.783-2.028-.225-4.093-.225-6.14-.319a15.735,15.735,0,0,1-6.854,12.712,8.994,8.994,0,0,1-10.478.207c-6.384-4.131-8.543-13.031-5.633-18.27-4.431-1.878-6.816-1.3-9.82,2.929A115.872,115.872,0,0,1,95.669,112.71h-.094c-.376.282-.732.582-1.07.883l-1.22,1.014v.188a10.083,10.083,0,0,0-2.61,5.764c-.845,13.313,2.159,27.752-4.619,39.225-3.267,5.52-8.45,9.614-13.332,13.782S63,182.391,60.8,188.437A16.017,16.017,0,0,0,62.678,203.2a20.654,20.654,0,0,0,.338,2.572l1.878,1.427a80.515,80.515,0,0,0,27.7,15.416c14.477,4.356,29.1,8.168,44.257,9.482a7.079,7.079,0,0,1,4.713,1.258,11.736,11.736,0,0,0,5.633-6.478,42.511,42.511,0,0,0,3.192-19.19,166.815,166.815,0,0,1,.188-31.076,95.927,95.927,0,0,1,4.187-21.049,125.28,125.28,0,0,1,8.975-19.941Zm-89.96,52.744c-.789.62-1.671,1.221-2.572,1.878a59.575,59.575,0,0,1,5.877-4.694,37.544,37.544,0,0,1-3.3,2.817Z" transform="translate(-327.471 638.606)" fill="#f8ebe5"/><path d="M124.249,86c-2.685,12.224-11.041,20.824-18.627,19.115-10.834-2.479-11.585-12.937-8.9-25.161s11.06-20.767,18.57-19.1S126.934,73.776,124.249,86Z" transform="translate(-296.209 614.9)" fill="#d77062"/><path d="M116.8,92.882c-2.8-.92-5.633-1.878-8.412-2.741C94.79,85.559,85.552,76.828,83.3,62.276c-1.615-10.515,1.051-19.96,9.651-26.964a18.777,18.777,0,0,1,16.186-4.281c12.355,2.535,15.566,12.674,14.308,21.162a49.91,49.91,0,0,1-3.549,11.754,5.145,5.145,0,0,0-.6,2.948c1.333,8.036,4.3,15.021,11.961,19.134a23.64,23.64,0,0,1,5.633,4,7.154,7.154,0,0,1,2.234,7,10.91,10.91,0,0,0,.15,5.276c.864,3.755-.62,7.06-1.878,10.44a17.274,17.274,0,0,1-3.286,4.657c-1.878,1.54-3.061,1.389-4.488-.526a8.769,8.769,0,0,1-1.652-6.516,18.589,18.589,0,0,1,4.056-9.388c1.878-2.441,1.878-2.666-.976-4.056A63.108,63.108,0,0,0,116.8,92.882Z" transform="translate(-307.233 588.565)" fill="#212443"/><path d="M119.531,82.226c-2.272,4.506-6.14,7.154-8.619,5.9s-2.685-5.934-.413-10.44,6.14-7.154,8.637-5.9S121.8,77.72,119.531,82.226Z" transform="translate(-284.356 624.401)" fill="#d77062"/><path d="M102.409,75.21c.6,4.488-.939,8.393-3.455,8.731s-5.032-3.023-5.633-7.511.939-8.412,3.455-8.75S101.808,70.723,102.409,75.21Z" transform="translate(-298.159 621.052)" fill="#d77062"/><path d="M108.445,78.264A5.333,5.333,0,0,1,98.362,74.94Z" transform="translate(-293.737 627.443)" fill="#fff"/><path d="M194.773,61.448c-1.258-1.671-8.168,4.319-8.168,4.319s8.506-8.374,7.774-9.8c-1.145-2.253-10.647,7.511-10.647,7.511s10.083-10.778,7.83-12.393-11,10.177-11,10.177,7.511-11.6,5.408-12.656S174.7,62.912,174.7,62.912s-1.352-8.938-3.192-8.788c-3.1.263-1.033,19.4-1.033,19.4l8.13,6.722S196.031,63.119,194.773,61.448Z" transform="translate(-230.919 604.283)" fill="#d77062"/><path d="M46.275,14.143c1.465-1.408,7.229,5.764,7.229,5.764S46.688,10.088,47.74,8.83c1.465-2.065,9.032,9.2,9.032,9.2S48.847,5.581,51.345,4.4,60.3,16.434,60.3,16.434s-5.3-12.768-2.986-13.425,8.506,16.167,8.506,16.167,2.986-8.562,4.751-8.055c3,.826-2.535,19.246-2.535,19.246L58.8,35.493S44.735,15.552,46.275,14.143Z" transform="translate(-339.439 564.294)" fill="#d77062"/><path d="M168.536,64.468c4,4.187,8.055,7.21,13.932,7.905,3,.338,2.967-4.337,0-4.675-4.544-.545-7.511-3.361-10.609-6.534-2.084-2.178-5.389,1.127-3.324,3.3Z" transform="translate(-232.603 614.726)" fill="#4f7ca6"/><path d="M69.184,17.012A21.537,21.537,0,0,0,50.764,25.8c-1.878,2.4,2.253,4.732,4.037,2.366a16.73,16.73,0,0,1,14.383-6.478C72.207,21.838,72.188,17.162,69.184,17.012Z" transform="translate(-335.816 576.578)" fill="#4f7ca6"/><path d="M125.55,84.279a78.975,78.975,0,0,1-38.136,36.5c-13.707,6.178-31.508,11.942-33.629,29.292-.188,1.483,2.159,1.465,2.347,0,2.385-19.509,26.644-23.227,40.577-31.451a80.74,80.74,0,0,0,30.719-33.16c.676-1.352-1.333-2.535-2.028-1.183Z" transform="translate(-332.754 635.116)" fill="#4f7ca6"/><path d="M55.985,123.329A49.12,49.12,0,0,1,51.215,134.6a1.166,1.166,0,1,0,2.009,1.183,51.2,51.2,0,0,0,5.013-11.867,1.168,1.168,0,1,0-2.253-.62Z" transform="translate(-335.142 669.127)" fill="#4f7ca6"/><path d="M112.607,89.339c2.2,6.966-.413,13.745-.357,20.8a40.8,40.8,0,0,0,3.605,15.021c4.244,10.215,10.966,20.091,9.595,31.639-.169,1.5,2.159,1.483,2.347,0,1.3-10.909-4.413-20.467-8.712-30.043a40.39,40.39,0,0,1-4.45-18.289c.3-6.741,2.328-13.144.225-19.772-.451-1.427-2.7-.826-2.253.62Z" transform="translate(-281.431 638.806)" fill="#4f7ca6"/><path d="M120.583,132.273a21.311,21.311,0,0,0,1.164,8.881c.507,1.408,2.76.807,2.253-.62a19.284,19.284,0,0,1-1.07-8.262C123.062,130.771,120.714,130.79,120.583,132.273Z" transform="translate(-274.179 676.781)" fill="#4f7ca6"/><path d="M110.219,207.563c11.848-.188,25.1-6.947,29.348-18.5,4.826-13.144-.6-26.607-5.633-38.7-.582-1.389-2.591-.188-2.028,1.183,4.525,10.722,9.388,22.532,6.309,34.287s-15.979,19.19-27.921,19.4a1.164,1.164,0,0,0,0,2.328Z" transform="translate(-284.169 693.104)" fill="#4f7ca6"/><path d="M56.867,137.542c-8.881,6.347-16.035,16.373-17.162,27.489-.469,4.713.732,9.952,4.938,12.674,5.22,3.38,11.867-.77,16.9,2.76,1.22.864,2.4-1.164,1.183-2.028-2.817-1.99-5.746-1.878-9.069-1.615s-6.647.338-9.088-2.253-2.835-6.7-2.347-10.177A38.1,38.1,0,0,1,58.106,139.57c1.22-.882,0-2.91-1.183-2.028Z" transform="translate(-345.187 682.197)" fill="#4f7ca6"/><path d="M67.024,118.9a81.9,81.9,0,0,0,34.737-53.308c.263-1.465-1.99-2.1-2.253-.62a79.689,79.689,0,0,1-33.667,51.918c-1.239.826,0,2.854,1.183,2.009Z" transform="translate(-322.615 617.956)" fill="#4f7ca6"/><path d="M122.848,75.971a91.124,91.124,0,0,0,2.216,40.8c2.8,9.971,6.14,21.293,15.773,26.663,1.314.732,2.5-1.277,1.183-2.009-9.5-5.314-12.562-17.2-15.19-27A87.556,87.556,0,0,1,125.1,76.684c.244-1.465-2.009-2.1-2.253-.62Z" transform="translate(-273.308 627.689)" fill="#4f7ca6"/><path d="M90.373,91.443a19.81,19.81,0,0,0,12.3,21.349c9.839,3.755,16.674-1.652,21.255-9.952.732-1.314-1.277-2.5-2.009-1.183-1.727,3.1-3.53,6.516-6.647,8.431a13.97,13.97,0,0,1-12.975,0A17.575,17.575,0,0,1,92.72,91.443C92.907,89.941,90.56,89.96,90.373,91.443Z" transform="translate(-300.825 640.945)" fill="#eac2b0"/><path d="M63,174.84c-2.572-7.7,7.83-11.867,12.787-15.51A101.545,101.545,0,0,0,87.558,149.3a105.319,105.319,0,0,0,19-25.837c.695-1.333-1.314-2.516-2.028-1.183A102.954,102.954,0,0,1,80.31,152.8c-4.619,3.924-9.783,6.891-14.59,10.534-3.924,2.986-6.647,7.116-4.976,12.13.469,1.408,2.741.807,2.253-.62Z" transform="translate(-327.077 668.483)" fill="#eac2b0"/><path d="M87.072,115.05a10.647,10.647,0,0,1-1.878,6.271c-.845,1.258,1.183,2.422,2.009,1.183a12.844,12.844,0,0,0,2.2-7.511,1.183,1.183,0,0,0-2.347,0Z" transform="translate(-305.354 661.69)" fill="#eac2b0"/><path d="M106.714,162.938c11.736,25.612,4.807,54.453-9.032,77.7-2.441,4.093-7.041,8.656-7.248,13.632-.225,5.5,2.554,11.66,3.4,17.106,2.084,13.5.695,28.165-9.595,38.211a1.183,1.183,0,0,0,.526,1.878,13.144,13.144,0,0,1,9.257,13.989,1.183,1.183,0,0,0,1.765,1.014,36.521,36.521,0,0,1,38.624,1.314,1.164,1.164,0,0,0,1.408-.188,28.41,28.41,0,0,1,32.709-2.854,1.164,1.164,0,0,0,1.164-2.009,30.558,30.558,0,0,0-27.226-1.9c-2.648,1.089-6.027,4.582-8.6,3.849-3.136-.9-5.99-3.079-9.238-4a39.154,39.154,0,0,0-10.008-1.427,38.549,38.549,0,0,0-19.979,5.276c.6.319,1.183.657,1.765,1a15.416,15.416,0,0,0-11.022-16.317l.507,1.878c8.731-8.468,11.717-20.655,11.078-32.465A141.125,141.125,0,0,0,93.4,257.967c-.976-4.732.826-7.511,3.267-11.266,1.878-2.986,3.755-6.046,5.483-9.163,12.674-23.171,17.932-51.017,6.591-75.783-.638-1.371-2.648-.188-2.028,1.183Z" transform="translate(-306.257 703.105)" fill="#f8ebe5"/><path d="M67.4,230.047c-5.952-6.91-11.942-14.289-10.891-24,.169-1.483-2.178-1.483-2.347,0-1.108,10.271,5.258,18.307,11.585,25.649C66.74,232.845,68.392,231.173,67.4,230.047Z" transform="translate(-332.527 741.54)" fill="#cc5b1c"/><path d="M61.358,219.033c-2.516,21.424-4,43.431,9.5,61.738.883,1.183,2.91,0,2.009-1.183-13.256-17.988-11.642-39.544-9.163-60.555.169-1.5-2.178-1.483-2.347,0Z" transform="translate(-327.559 752.929)" fill="#cc5b1c"/><path d="M73.1,260.136a46,46,0,0,0,11.266,10.327A68.463,68.463,0,0,0,99.74,276.1c4.751,1.352,9.8,3.192,14.8,2.328s13.914-6.121,18.645-2.441c1.164.92,2.835-.713,1.652-1.652-3.192-2.5-6.741-1.878-10.5-1-6.553,1.371-11.585,3.755-18.42,2.047a133.843,133.843,0,0,1-16.5-5.051c-6.121-2.441-10.346-6.929-14.571-11.792-.976-1.145-2.629.526-1.652,1.652Z" transform="translate(-315.975 788.249)" fill="#cc5b1c"/><path d="M67.208,212.509a145.334,145.334,0,0,1-24.785,24.9,1.145,1.145,0,0,0-.188,1.408A44.6,44.6,0,0,1,45.8,270.98a1.171,1.171,0,1,0,2.253.638,47.111,47.111,0,0,0,1.465-16.43c-.507-5.314-2.629-9.745-3.887-14.777-.526-2.065-.789-1.577.939-3.342.92-.939,2.065-1.727,3.061-2.572,2.234-1.878,4.394-3.906,6.5-5.971a146.816,146.816,0,0,0,12.731-14.364c.92-1.164-.732-2.835-1.652-1.652Z" transform="translate(-343.023 747.831)" fill="#cc5b1c"/><path d="M45.695,246.261c35.676,5.2,43.337,62.565,83.163,56.5,1.483-.225.845-2.479-.62-2.253-20.861,3.173-34.925-15.735-46.116-30.193-9.2-11.886-20.129-24.016-35.807-26.288-1.465-.207-2.1,2.047-.62,2.253Z" transform="translate(-340.587 775.836)" fill="#cc5b1c"/><path d="M104.245,168.009C99.1,157.55,88.022,145.7,75.517,145.176c-5.633-.244-10.1,2.892-14.439,6.215a22.532,22.532,0,0,1-8.6,4.882c-4.957,1.014-9.914-1.558-14.2-3.755-2.685-1.333-5.07,2.7-2.366,4.056,5.483,2.741,11.529,5.633,17.819,4.168,5.2-1.164,8.957-5.089,13.144-7.98,13.144-8.9,27.771,6.422,33.235,17.575,1.333,2.7,5.37.338,4.056-2.366Z" transform="translate(-349.472 689.077)" fill="#cc5b1c"/><path d="M112.107,160.824a9.5,9.5,0,0,0-14.308.15c-5.539,6.1-6.835,14.871-10.966,21.819-2.178,3.755-5.445,7.379-9.726,8.487-4.582,1.2-8.938-1.427-13.388-2.047A14.74,14.74,0,0,0,48.7,197.157c-1.408,2.648,2.629,5.032,4.037,2.366a10.064,10.064,0,0,1,8.187-5.633c3.887-.3,7.511,1.765,11.266,2.328A16.2,16.2,0,0,0,85.2,192.106a34.324,34.324,0,0,0,8.881-13.576c1.878-4.45,7.511-22.044,14.721-14.327,2.065,2.2,5.37-1.108,3.3-3.3Z" transform="translate(-337.468 700.036)" fill="#cc5b1c"/><path d="M103.529,162.537a71.728,71.728,0,0,1-9.144,72.216c-3.53,4.638-6.628,9.276-6.76,15.3-.15,7.154,1.727,14.458,2.1,21.65.751,14.421-1.54,29.517-11.811,40.389a2.385,2.385,0,0,0,1.033,3.924A18.645,18.645,0,0,1,92.093,335.1c-.169,3,4.506,3,4.694,0a23.4,23.4,0,0,0-16.655-23.6c.357,1.314.695,2.61,1.033,3.924,9.595-10.158,13.144-23.828,13.35-37.554,0-8.281-1.389-16.317-2.1-24.523-.751-8.6,4.018-13.256,8.581-19.791a76.028,76.028,0,0,0,6.516-73.418c-1.2-2.76-5.239-.376-4.037,2.366Z" transform="translate(-312.141 701.14)" fill="#f8ebe5"/><path d="M89.2,257.766a46.942,46.942,0,0,1,46.454,7.511c2.31,1.878,5.633-1.371,3.3-3.3a51.58,51.58,0,0,0-51.017-8.787c-2.779,1.051-1.577,5.633,1.258,4.506Z" transform="translate(-304.144 781.061)" fill="#f8ebe5"/><path d="M117.507,262.663c1.389-4.168,6.478-5.164,10.308-5.783a42.192,42.192,0,0,1,17.35.282,2.347,2.347,0,0,0,1.258-4.506,48.087,48.087,0,0,0-22.175.131c-4.995,1.145-9.539,3.511-11.266,8.619-.958,2.873,3.568,4.093,4.525,1.258Z" transform="translate(-280.905 782.341)" fill="#f8ebe5"/><path d="M134.36,243.55c3.154,4.018,3.117,9.107,2.985,13.989-.15,5.258-.357,10.534-.526,15.791l-.488,14.871c-.15,4.431.976,11.886-2.61,15.153-1.108,1.014.545,2.666,1.652,1.652,2.986-2.723,2.948-6.534,3.079-10.29.263-7.135.469-14.252.714-21.387.207-6.44.676-12.937.563-19.4a19.19,19.19,0,0,0-3.755-12.055c-.92-1.183-2.572.488-1.652,1.671Z" transform="translate(-262.907 773.608)" fill="#f8ebe5"/><path d="M98.723,269.115c4.075,8.694,1.6,17.969.714,27.039-.845,8.637,2.2,18.777-3.361,26.288-.9,1.2,1.127,2.385,2.009,1.183,5.9-7.924,2.8-18.289,3.755-27.414.939-9.614,3.248-19.059-1.033-28.165-.638-1.371-2.648-.188-2.028,1.183Z" transform="translate(-295.825 796.394)" fill="#f8ebe5"/><path d="M558.148,7.513c1.878-.845,5.032,7.661,5.032,7.661S559.8,3.908,561.1,2.951c2.084-1.427,5.633,11.529,5.633,11.529S563.218.341,565.94,0s4.694,14.139,4.694,14.139S569.62.416,572.005.547,575.047,18.4,575.047,18.4s5.445-7.135,6.966-6.121c2.572,1.727-8.375,17.369-8.375,17.369l-10.271,1.878S556.27,8.434,558.148,7.513Z" transform="translate(-601.578 559.003)" fill="#d77062"/><path d="M699.058,66.705c-1.446-1.483-7.511,5.258-7.511,5.258s7.323-9.388,6.422-10.609c-1.39-2.065-9.557,8.619-9.557,8.619s8.581-11.867,6.177-13.144-9.576,11.4-9.576,11.4,5.99-12.374,3.755-13.144-9.388,15.491-9.388,15.491-2.422-8.637-4.225-8.262c-3.023.638,1.389,19.228,1.389,19.228l8.844,5.633S700.485,68.189,699.058,66.705Z" transform="translate(-499.535 607.328)" fill="#d77062"/><path d="M616.992,145.815a72.028,72.028,0,0,0,31.132,10.29,78.019,78.019,0,0,0,18.777,0c10.515-1.5,19.209-6.854,27.264-13.444.789-.638,1.559-1.333,2.328-1.99,3.511,6.8,7.68,13.275,9.6,20.861,4.563,18.138,1.333,34.531-10.384,49.2A192.744,192.744,0,0,1,664.61,242.1a29.519,29.519,0,0,0-2.929,3,4.281,4.281,0,0,0-2.366,1.2c-2.985,2.4-5.915,4.9-9.013,7.154-9.539,6.91-18.927,14.064-29.273,19.81-3.755,2.1-3.755,2.31-1.22,6.14,4.563,6.985,9.388,13.782,13.651,20.955a128.854,128.854,0,0,1,10.271,13.951c4.319,6.516,8.337,13.256,12.693,19.753,1.521,2.272,2.159,4.244.451,6.572a106.773,106.773,0,0,0-10.7,14.684,23.49,23.49,0,0,0-4.056,5.07c-.92,1.22-1.728,1.314-2.835.319-3.417-3.079-6.872-6.14-10.308-9.219a68.013,68.013,0,0,0-7.379-6.14c-7.154-5.783-14.308-11.6-21.481-17.387s-13.857-11.266-20.917-16.9c-4.751-3.755-8.881-8.149-14.045-11.266-4.713-4.713-9.388-9.388-14.158-14.12a78.876,78.876,0,0,1-8.938-10.59c-5.633-8.055-5.633-14.327.188-22.213a196.775,196.775,0,0,1,21.124-23.434c4.506-4.413,9.013-8.788,13.238-13.463,10.271-11.266,21.049-22.194,31.6-33.235a6.591,6.591,0,0,0,2.1-5.051A85.514,85.514,0,0,1,616.992,145.815Z" transform="translate(-619.114 682.47)" fill="#e8a628"/><path d="M553.671,225.39c5.164,3.173,9.388,7.623,14.045,11.266,7.06,5.52,13.951,11.266,20.917,16.9s14.327,11.6,21.481,17.387a69.317,69.317,0,0,0,2.7,13.144c3.53,14.4,6.966,28.822,9.9,43.375.582,2.835.469,2.873-2.16,3.755-1.446.507-2.91.939-4.375,1.427l-18.157,5.633c-1.671.639-3.342,1.3-5.013,1.878-3.173,1.164-3.211,1.145-4.394-1.878-2.328-5.84-4.563-11.7-6.947-17.519-4.957-12.092-9.877-24.2-15.021-36.239a452,452,0,0,1-14.909-43.187A20,20,0,0,1,553.671,225.39Z" transform="translate(-607.673 756.827)" fill="#e28a21"/><path d="M595.957,251.54c-4.244-7.173-9.088-13.97-13.651-20.955-2.5-3.755-2.572-4.037,1.221-6.14,10.346-5.746,19.734-12.9,29.273-19.81,3.1-2.253,6.027-4.751,9.013-7.154a4.282,4.282,0,0,1,2.366-1.2c-2.76,5.464-5.427,10.984-8.262,16.43-6.083,11.679-12.261,23.321-18.364,34.981A8.6,8.6,0,0,0,595.957,251.54Z" transform="translate(-581.649 731.278)" fill="#e28a21"/><path d="M584.1,288.173l18.157-5.633c.169,1.652.319,3.3.526,4.957a11.267,11.267,0,0,1-3.38,10.2c-8.337,7.6-16.129,15.81-25.123,22.682a11.266,11.266,0,0,1-3.605,2.159c-2.535.676-4.075-.507-3.887-3.136a16.56,16.56,0,0,1,3.755-8.694,36.428,36.428,0,0,1,4.638-5.126c4.807-4.431,6.7-10.534,9.388-16.148C584.944,288.887,584.475,288.492,584.1,288.173Z" transform="translate(-593.732 806.987)" fill="#dd6a3e"/><path d="M595.52,261.864a106.78,106.78,0,0,1,10.7-14.684,12.712,12.712,0,0,1,6.4,13.651c-.6,4.3-1.014,8.637-1.652,12.937a76.668,76.668,0,0,0-.732,12.618,13.628,13.628,0,0,1-.751,4.919,3.1,3.1,0,0,1-5.445,1.277,10.233,10.233,0,0,1-2.892-4.9,54.441,54.441,0,0,1-1.558-7.511A98.445,98.445,0,0,0,595.52,261.864Z" transform="translate(-568.5 775.952)" fill="#dd6a3e"/><path d="M631.242,44.359c-2.892-.545-5.8,1.652-6.947,5.051a6.463,6.463,0,0,1-.713-.507,10.1,10.1,0,0,1-3.3-4.319,9.387,9.387,0,0,1-.6-2.835c0-1.07-.113-2.159-.169-3.549h0a8.938,8.938,0,0,0-3.3,2.291c-.282.282-.713-.714-1-.432-3.962,4-7.755,4.469-13.876,4.9a7.173,7.173,0,0,1-2.216-.582c-.507-.413-1-.807-1.446-1.239a25.352,25.352,0,0,0-.638,5.633,23.323,23.323,0,0,0,3.755,12.918l.113.15A14.383,14.383,0,0,0,609.367,68a4.338,4.338,0,0,1,.713,3.38c-.094.751,0,1.54-.113,2.291-.807,4.45-2.291,8.412-7.417,9.5-.563.131-.638.751-.883,1.183.225,1.258.413,2.516.676,3.755,1.051,4.769,3.042,8.9,7.511,11.51a11.266,11.266,0,0,0,14.852-2.347c3.361-3.755,4.337-8.581,5.464-13.294A20.655,20.655,0,0,1,620.107,66.8c0-.488-.131-1-.131-1.483a19.1,19.1,0,0,0,5.464-7.961A5.088,5.088,0,0,0,628.5,59.23c3.267.6,6.553-2.253,7.323-6.384S634.528,44.978,631.242,44.359Z" transform="translate(-567.175 592.533)" fill="#d77062"/><path d="M638.368,22.088a10.909,10.909,0,0,0-12.618-1.446,11.266,11.266,0,0,0-6.722,10.778,29.086,29.086,0,0,0,.77,6.121,25.047,25.047,0,0,0-8.675-2.967,17.857,17.857,0,0,0-13.857,3.586A13.275,13.275,0,0,0,592.759,51.4c1.446,5.22,6.328,8.3,11.266,9.82,7.3,2.272,13.726-1.878,19.678-5.633a19.808,19.808,0,0,0,.131,2.835,9.557,9.557,0,0,0,3.906,7.173c1.69,1.314,2.347,1.333,3.324-.169,0-.15.169-.282.263-.451.469-.751.826-1.6,1.22-2.385a38.339,38.339,0,0,0,.9-8.975,13.388,13.388,0,0,0,12.543-11.886,20.655,20.655,0,0,0-7.624-19.641Z" transform="translate(-571.221 575.917)" fill="#212443"/><path d="M651.4,148.1c10.29,18.082-.15,39.9-11.266,54.847-11.6,15.491-27.02,27.7-43.037,38.342-9.069,6.027-18.42,11.623-27.79,17.162a1.183,1.183,0,0,0,1.183,2.028c17.444-10.346,34.962-20.842,50.435-34.061,14.74-12.58,28.8-28.466,34.624-47.318,3.286-10.609,3.568-22.288-2.047-32.184a1.183,1.183,0,0,0-2.028,1.183Z" transform="translate(-591.914 687.545)" fill="#d88f25"/><path d="M566.274,204.732a931,931,0,0,0,62.677,82.618c.977,1.145,2.629-.526,1.652-1.652a930.471,930.471,0,0,1-62.32-82.017c-.826-1.239-2.854,0-2.009,1.183Z" transform="translate(-594.345 737.322)" fill="#d88f25"/><path d="M601.879,287.836c-9.032,12.487-21.669,21.631-34.042,30.512-1.221.864,0,2.91,1.183,2.028,12.712-9.144,25.593-18.514,34.869-31.357.883-1.22-1.145-2.385-2.009-1.183Z" transform="translate(-593.241 811.192)" fill="#f9efe6"/><path d="M570.734,296.144c2.76,2.159,5.464,4.394,8.112,6.666a1.168,1.168,0,0,0,1.652-1.652q-3.981-3.436-8.093-6.666a1.239,1.239,0,0,0-1.671,0,1.2,1.2,0,0,0,0,1.652Z" transform="translate(-590.543 817.192)" fill="#f9efe6"/><path d="M571.983,294.2q5.633,3.136,11.135,6.722A1.183,1.183,0,0,0,584.3,298.9q-5.408-3.605-11.135-6.7C571.833,291.461,570.65,293.489,571.983,294.2Z" transform="translate(-589.671 815.322)" fill="#f9efe6"/><path d="M610.992,258.5a123.314,123.314,0,0,1-14.233,8.224c-1.352.676-.169,2.685,1.183,2.028a123.312,123.312,0,0,0,14.233-8.224C613.414,259.687,612.175,257.659,610.992,258.5Z" transform="translate(-567.936 785.714)" fill="#f9efe6"/><path d="M611.394,261.8q-7.1,4.337-14.515,8.093c-1.352.676-.169,2.7,1.183,2.009q7.4-3.755,14.514-8.149c1.277-.789.113-2.817-1.183-2.009Z" transform="translate(-567.831 788.574)" fill="#f9efe6"/><path d="M607.1,251.2c-.338,6.816-.826,13.613-1.521,20.392-.357,3.323-.732,6.647-1.164,9.971s-.619,6.816-2.5,9.67c-.826,1.258,1.2,2.441,2.028,1.183a20.99,20.99,0,0,0,2.554-8.957q.714-5.126,1.239-10.271,1.183-10.947,1.69-21.988A1.165,1.165,0,0,0,607.1,251.2Z" transform="translate(-563.052 778.489)" fill="#f9efe6"/><ellipse cx="17.462" cy="20.072" rx="17.462" ry="20.072" transform="translate(42.549 590.589)" fill="#212443"/><path d="M611.56,47.255a5.314,5.314,0,0,1-10.59-.545Z" transform="translate(-563.716 600.003)" fill="#fff"/></g></svg>