<svg xmlns="http://www.w3.org/2000/svg" viewBox="0 0 323.34 216.86"><defs><style>.cls-1{fill:#3f60b2;}.cls-2{fill:#fff;}.cls-3{fill:#314f8f;}</style></defs><title>characterAsset 1</title><g id="Layer_2" data-name="Layer 2"><g id="object"><path class="cls-1" d="M168.32,216.86a15.46,15.46,0,0,1-1.79-.1c-14.19-1.61-20.51-21.34-23.31-37.59-3.52-20.47-3.73-47-.56-74.85S152,50.66,160,31.5c6.38-15.21,16.93-33,31.15-31.4s20.5,21.33,23.3,37.59c3.53,20.47,3.73,47.05.57,74.85s-9.32,53.66-17.35,72.82C191.57,199.92,181.61,216.86,168.32,216.86ZM189.44,13.05c-2.75,0-9.57,4.82-17.4,23.5-7.57,18-13.4,42.63-16.42,69.24s-2.86,51.88.46,71.16c3.54,20.57,9.35,26.55,11.92,26.85s9.58-4.24,17.65-23.49c7.56-18,13.4-42.63,16.42-69.24s2.86-51.88-.46-71.16c-3.55-20.57-9.35-26.55-11.93-26.85Z"/><path class="cls-2" d="M249,180.44c-8.56,0-18.35-2.7-26.75-5.79-19.49-7.18-42.61-20.3-65.1-36.94C113.63,105.5,77,62.83,91.18,43.6s65.76,3.33,109.32,35.55c22.5,16.63,41.81,34.9,54.38,51.43,10,13.13,20.11,31.2,11.62,42.68C262.61,178.51,256.26,180.44,249,180.44ZM108.36,49.34c-3.45,0-5.73.72-6.69,2C97,57.74,115,90.3,164.94,127.22c21.53,15.93,43.5,28.42,61.86,35.18,19.58,7.22,27.67,5.19,29.21,3.1s1.12-10.41-11.51-27c-11.85-15.58-30.23-32.92-51.76-48.85C153,60.24,121.8,49.34,108.36,49.34Z"/><path class="cls-3" d="M107.56,164.17c-12.54,0-24.56-2.75-28.69-12.24-5.7-13.09,8.22-28.43,20.9-39,16-13.29,38.88-26.75,64.54-37.92,49.68-21.62,105-32,114.51-10.1,5.69,13.09-8.23,28.42-20.91,39-16,13.29-38.88,26.75-64.54,37.92h0c-25.65,11.16-51.13,18.75-71.73,21.37A111.54,111.54,0,0,1,107.56,164.17ZM250.67,65.73c-16.56,0-44.85,5.47-81.15,21.26-24.56,10.69-46.36,23.47-61.4,36-16,13.35-18.32,21.37-17.29,23.74s8.46,6.18,29.16,3.54c19.41-2.47,43.63-9.71,68.18-20.4h0c24.55-10.68,46.36-23.46,61.4-36,16-13.35,18.32-21.37,17.28-23.75C265.71,67.5,260.09,65.73,250.67,65.73Z"/><circle class="cls-1" cx="28.51" cy="67.78" r="28.51" transform="translate(-39.58 40.01) rotate(-45)"/><circle class="cls-2" cx="303.71" cy="116.64" r="19.63"/><circle class="cls-3" cx="86.1" cy="192.17" r="14.63" transform="translate(-117.38 246.38) rotate(-80.78)"/></g></g></svg>