<svg xmlns="http://www.w3.org/2000/svg" xmlns:xlink="http://www.w3.org/1999/xlink" width="2566" height="1288.938" viewBox="0 0 2566 1288.938"><defs><filter id="a" x="0" y="568" width="684" height="579" filterUnits="userSpaceOnUse"><feOffset dy="100" input="SourceAlpha"/><feGaussianBlur stdDeviation="45" result="b"/><feFlood flood-opacity="0.122"/><feComposite operator="in" in2="b"/><feComposite in="SourceGraphic"/></filter><filter id="c" x="1882" y="334" width="684" height="579" filterUnits="userSpaceOnUse"><feOffset dy="100" input="SourceAlpha"/><feGaussianBlur stdDeviation="45" result="d"/><feFlood flood-opacity="0.122"/><feComposite operator="in" in2="d"/><feComposite in="SourceGraphic"/></filter></defs><g transform="translate(-4883 -10537)"><g transform="translate(5551.115 10537.005)"><g transform="translate(0 -0.005)"><path d="M364.315,33.82s-200.548,0-349.455,145.732V588.336s709.272,10.7,709.272,0V152.812A613.009,613.009,0,0,0,364.315,33.82Z" transform="translate(233.485 531.474)" fill="#01a0c1"/><path d="M298.315,65.61H96.1A96.263,96.263,0,0,0,0,161.706H0a96.263,96.263,0,0,0,96.1,96.263H334.247Z" transform="translate(0 1030.969)" fill="#e88e80"/><path d="M.71,275.993,136.581,55.39,322.924,80.459,295.182,322.286Z" transform="translate(11.156 870.389)" fill="#e88e80"/><line x1="120.162" transform="translate(128.184 1096.579)" fill="none" stroke="#55382c" stroke-miterlimit="10" stroke-width="0.72"/><path d="M227.981,40.92S118.682,129.328,3.2,323.86c0,0,24.9,112.474,239.822,129.688Z" transform="translate(50.28 643.031)" fill="#00b1d6"/><path d="M89.187,65.61H291.407a96.263,96.263,0,0,1,96.263,96.1h0a96.263,96.263,0,0,1-96.263,96.263H53.59Z" transform="translate(842.025 1030.969)" fill="#e88e80"/><path d="M375.136,313.014,205.171,52.97,53.59,118.482,81.165,360.31Z" transform="translate(842.025 832.365)" fill="#e88e80"/><line x2="158.767" transform="translate(942.744 1096.579)" fill="none" stroke="#55382c" stroke-miterlimit="10" stroke-width="0.72"/><path d="M71.451,40.92s109.3,88.408,224.781,282.94c0,0-24.9,112.474-239.822,129.688Z" transform="translate(886.334 643.031)" fill="#00b1d6"/><rect width="709.272" height="471.455" rx="1.93" transform="translate(248.345 817.483)" fill="#2b2b2b"/><path d="M120.384,103.852A43.452,43.452,0,1,1,76.932,60.4,43.452,43.452,0,0,1,120.384,103.852Z" transform="translate(526.049 949.108)" fill="#fff"/><path d="M31.567,28.67H187.493V130.114A54.482,54.482,0,0,1,133.011,184.6H85.882A54.482,54.482,0,0,1,31.4,130.114V28.67Z" transform="translate(493.368 450.555)" fill="#e88e80"/><path d="M31.43,56.41s22.729,69.69,155.425,66.849V27.33h0S178,45.212,118.836,42.705,31.43,56.41,31.43,56.41Z" transform="translate(493.839 429.501)" fill="#0b0b0b"/><ellipse cx="193.529" cy="198.376" rx="193.529" ry="198.376" transform="translate(407.948 19.301)" fill="#0b181b"/><path d="M57.47,31.057a34.427,34.427,0,0,1,42.617-11.364c28.745,10.863,15.71,80.721-27.408,89.578a33.425,33.425,0,0,1-27.408-7.186S55.8,50.61,57.47,31.057Z" transform="translate(711.298 259.152)" fill="#e88e80"/><path d="M86.862,18.883S62.8,10.861,45.75,46.291" transform="translate(718.84 284.529)" fill="none" stroke="#021833" stroke-linecap="round" strokeLinejoin="round" stroke-width="0.46"/><path d="M80.912,31.071A34.6,34.6,0,0,0,38.129,19.707C9.383,30.57,22.419,100.427,65.537,109.285A33.425,33.425,0,0,0,93.279,102.1S82.583,50.625,80.912,31.071Z" transform="translate(357.954 259.137)" fill="#e88e80"/><path d="M24.05,18.883s24.066-8.022,41.112,27.408" transform="translate(377.882 284.529)" fill="none" stroke="#021833" stroke-linecap="round" strokeLinejoin="round" stroke-width="0.46"/><path d="M362.308,163.184c0,44.622-4.512,138.211-33.425,193.7a144.9,144.9,0,0,1-131.192,81.89C138.7,440.442,94.743,418.883,59.48,351.2S26.055,164.02,26.055,164.02s0-159.77,167.124-159.77C367.489,4.25,362.308,163.184,362.308,163.184Z" transform="translate(409.134 66.86)" fill="#e88e80"/><path d="M34.055,175.583S96.559,30.854,46.422,7.29C46.422,7.29,9.822,131.63,34.055,175.583Z" transform="translate(404.811 114.625)" fill="#0b181b"/><path d="M62.11,143.061s-35.6-78.047-4.178-133.7C57.431,8.861,85.842,99.107,62.11,143.061Z" transform="translate(706.658 147.148)" fill="#0b181b"/><path d="M61.186,33.758A15.208,15.208,0,1,1,45.978,18.55,15.208,15.208,0,0,1,61.186,33.758Z" transform="translate(483.469 291.546)" fill="#0b181b"/><path d="M69.6,33.758A15.208,15.208,0,1,1,54.388,18.55,15.208,15.208,0,0,1,69.6,33.758Z" transform="translate(615.61 291.546)" fill="#0b181b"/><path d="M35.441,21.45V42.006a8.022,8.022,0,0,0,9.526,8.022l10.863-2.34" transform="translate(556.844 337.112)" fill="none" stroke="#021833" stroke-linecap="round" strokeLinejoin="round" stroke-width="0.46"/><path d="M120.955,33.64,28.87,44.837S36.223,20.27,73.826,16.092,120.955,33.64,120.955,33.64Z" transform="translate(453.616 244.536)" fill="#0b181b"/><path d="M37.57,33.64l92.252,11.2S122.3,20.27,84.7,16.092,37.57,33.64,37.57,33.64Z" transform="translate(590.313 244.536)" fill="#0b181b"/><path d="M33.151,24.57h93.088s1.5,34.595-46.795,32.589S33.151,24.57,33.151,24.57Z" transform="translate(520.696 386.134)" fill="#fff"/><path d="M27,76.348S130.951,202.359,351.052,159.91c0,0,19.386-113.811-94.425-148.573S53.907,59.3,27,76.348Z" transform="translate(424.233 45.567)" fill="#0b181b"/><path d="M27,121.91S24.665,18.461,120.427,2.918,219.2,38.683,287.55,42.694c101.277,6.184,147.4,105.622,64.008,163.28L210.841,121.91Z" transform="translate(424.229 0.005)" fill="#0b181b"/><path d="M84.279,5.49S-19.5,18.359,44.337,183.811Z" transform="translate(370.464 86.343)" fill="#0b181b"/><path d="M81.375,32.83l76.543,86.236L101.1,177.392,28.23,66.756Z" transform="translate(443.56 515.919)" fill="#fff"/><path d="M115.207,33.1,35.99,114.823,92.979,173.15l81.389-110.8Z" transform="translate(565.487 520.161)" fill="#fff"/></g></g><g transform="translate(29 535)"><g transform="matrix(1, 0, 0, 1, 4854, 10002)" filter="url(#a)"><rect width="414" height="309" rx="42" transform="translate(135 603)" fill="#fff"/></g><path d="M42,0H433a42,42,0,0,1,42,42V457a0,0,0,0,1,0,0H42A42,42,0,0,1,0,415V42A42,42,0,0,1,42,0Z" transform="translate(4958 10490)" fill="#fff"/><rect width="219" height="23" rx="10" transform="translate(5021 10576)" fill="#d2d2d2"/><rect width="302" height="17" rx="8.5" transform="translate(5021 10645)" fill="#eee"/><rect width="253" height="17" rx="8.5" transform="translate(5021 10680)" fill="#eee"/><rect width="349" height="139" rx="15" transform="translate(5021 10743)" fill="#00bb79"/></g><g transform="translate(-26 101)"><g transform="matrix(1, 0, 0, 1, 4909, 10436)" filter="url(#c)"><rect width="414" height="309" rx="42" transform="translate(2017 369)" fill="#fff"/></g><path d="M42,0H433a42,42,0,0,1,42,42V415a42,42,0,0,1-42,42H0a0,0,0,0,1,0,0V42A42,42,0,0,1,42,0Z" transform="translate(6896 10690)" fill="#fff"/><rect width="302" height="17" rx="8.5" transform="translate(6982 11026)" fill="#00bb79"/><rect width="253" height="17" rx="8.5" transform="translate(7007 11065)" fill="#eee"/><circle cx="112" cy="112" r="112" transform="translate(7021 10746)" fill="#ff9057" opacity="0.16"/><path d="M44.5,2A42.5,42.5,0,1,0,87,44.5,42.518,42.518,0,0,0,44.5,2ZM36,65.753,14.751,44.5l5.993-5.993L36,53.725,68.261,21.466,74.254,27.5Z" transform="translate(7088.996 10813)" fill="#ff9057"/></g></g></svg>