<svg xmlns="http://www.w3.org/2000/svg" width="30.002" height="30" viewBox="0 0 30.002 30">
  <path id="Path_479" data-name="Path 479" d="M27.592,8.217a4.508,4.508,0,0,1-.9.706L21.577,3.809a4.512,4.512,0,0,1,.706-.9A1.41,1.41,0,0,0,20.289.913C18,3.2,17.966,5.969,18.367,8.467c-2.908-.6-6.123-.854-8.689,1.712a6.94,6.94,0,0,0-2.039,4.166.44.44,0,1,0,.873.113A6.091,6.091,0,0,1,10.3,10.8c2.364-2.364,5.352-2.024,8.236-1.4.086.431.162.769.246,1.141-2.866-.652-5.642-1.113-7.736,1.011-4.68,4.686,3.272,12.681-1.959,17.912a.53.53,0,0,1-.75-.75c3.317-3.317.353-8.082.121-12.644a.44.44,0,0,0-.879.045,18.428,18.428,0,0,0,.386,2.752c-2.5-.4-5.265-.367-7.554,1.922a1.41,1.41,0,0,0,1.995,1.995,4.512,4.512,0,0,1,.9-.706l5.114,5.114a4.516,4.516,0,0,1-.706.9A1.41,1.41,0,0,0,9.71,30.088C12,27.8,12.033,25.033,11.632,22.534c3.319.684,6.286.692,8.689-1.712,2.566-2.566,2.311-5.782,1.711-8.69a13.348,13.348,0,0,0,2.518.187.44.44,0,0,0-.028-.88,13.059,13.059,0,0,1-2.692-.233c-.085-.371-.167-.721-.26-1.124,2.441.491,4.765.636,6.644-1.243a.53.53,0,1,1,.75.75,6.017,6.017,0,0,1-2.843,1.635.44.44,0,1,0,.216.853,6.874,6.874,0,0,0,3.249-1.865,1.41,1.41,0,1,0-1.995-1.995ZM1.784,22.162a.53.53,0,0,1-.75-.75,6.4,6.4,0,0,1,4.758-1.854,13.7,13.7,0,0,1,2.376.237c.084.369.17.733.26,1.124-2.441-.492-4.765-.636-6.644,1.243ZM4.172,21.7a9.1,9.1,0,0,1,4.466.164A9.1,9.1,0,0,1,8.8,26.328ZM11,19.5a17.824,17.824,0,0,1-.619-4.023l4.642,4.642A17.819,17.819,0,0,1,11,19.5Zm5.152.5-5.656-5.656a4.2,4.2,0,0,1,.884-1.853L18,19.125a4.2,4.2,0,0,1-1.853.884ZM18.623,18.5,12,11.877a4.2,4.2,0,0,1,1.853-.884l5.656,5.656a4.2,4.2,0,0,1-.883,1.853ZM19,11.5a17.837,17.837,0,0,1,.619,4.023L14.98,10.878A17.821,17.821,0,0,1,19,11.5Zm.7,8.7c-2.364,2.364-5.351,2.024-8.236,1.4-.062-.309-.13-.628-.246-1.141,2.9.66,5.622,1.1,7.733-1.008C23.6,14.8,15.71,6.737,20.911,1.536a.53.53,0,0,1,.75.75C16.986,6.96,24.928,14.971,19.7,20.2ZM21.361,9.14A9.1,9.1,0,0,1,21.2,4.674l4.63,4.63a9.1,9.1,0,0,1-4.466-.164Zm0,0" transform="translate(0.001 -0.501)" fill="#fff"/>
</svg>
