<svg xmlns="http://www.w3.org/2000/svg" width="22.44" height="30.076" viewBox="0 0 22.44 30.076"><g transform="translate(0)"><path d="M84.795,14.255a.441.441,0,1,0-.559.681,6.313,6.313,0,1,1-1.523-.928.441.441,0,1,0,.348-.81,7.26,7.26,0,0,0-5.309-.155V3.489h.06A.992.992,0,0,0,78.8,2.5V.988A.991.991,0,0,0,77.811,0H65.989A.99.99,0,0,0,65,.988V2.5a.991.991,0,0,0,.989.99h.06V24.231A5.856,5.856,0,0,0,71.9,30.076a5.792,5.792,0,0,0,3.487-1.159,5.946,5.946,0,0,0,1.92-2.459,7.225,7.225,0,0,0,7.487-12.2ZM65.989,2.608a.111.111,0,0,1-.108-.109V.988a.109.109,0,0,1,.108-.107H77.811a.111.111,0,0,1,.11.107V2.5a.112.112,0,0,1-.11.109H73.078a.441.441,0,0,0,0,.881h3.792v4.85l-1.378-.006A11.368,11.368,0,0,1,71.08,7.68a8.868,8.868,0,0,0-3.485-.568H66.93V3.489h4.208a.441.441,0,0,0,0-.881ZM71.9,29.2a4.973,4.973,0,0,1-4.971-4.965V22.976h2a.441.441,0,1,0,0-.881h-2V19.268h2a.441.441,0,1,0,0-.881h-2V15.56h2a.441.441,0,1,0,0-.881h-2V11.851h2a.441.441,0,1,0,0-.881h-2V7.993h.665a8.034,8.034,0,0,1,3.194.519,12.247,12.247,0,0,0,4.7.7l1.382.006V13.43a7.217,7.217,0,0,0-.35,12.624A5.028,5.028,0,0,1,71.9,29.2Z" transform="translate(-65 0)" fill="#fff"/><path d="M279.737,269.53c-.28-.625-.449-1-.91-1s-.631.378-.911,1a22.035,22.035,0,0,1-1.333,2.567,3.007,3.007,0,0,0-.23,3.169,2.853,2.853,0,0,0,2.456,1.392h.02a2.886,2.886,0,0,0,2.469-1.428,3.043,3.043,0,0,0-.229-3.132A22.1,22.1,0,0,1,279.737,269.53Zm.794,5.269a1.991,1.991,0,0,1-1.707.978h-.014a1.96,1.96,0,0,1-1.691-.947,2.224,2.224,0,0,1,.221-2.279,23.135,23.135,0,0,0,1.381-2.661c.036-.08.072-.161.106-.235.034.074.07.155.106.234a23.2,23.2,0,0,0,1.382,2.661A2.179,2.179,0,0,1,280.531,274.8Z" transform="translate(-263.617 -252.753)" fill="#fff"/></g></svg>