<svg xmlns="http://www.w3.org/2000/svg" width="69.215" height="74.047" viewBox="0 0 69.215 74.047"><g transform="translate(-240.084 -133.191)"><path d="M21.7,6.338a4.345,4.345,0,0,1-1.684,2.423C14.971,13.023,4.924,16.411,0,11.431c.7.046,2.421.5,3.854.558,3.406.132,6.357-2.626,8.848-5.143C14.228,5.3,15.8.182,18.054,0,20.208-.165,22.032,4.323,21.7,6.338Z" transform="translate(272.013 140.778) rotate(-9)" fill="#c15d78"/><path d="M3.848,8.175a28.935,28.935,0,0,1,6.688-5.96C13.038.519,16.1-.467,18.951.222A2.154,2.154,0,0,1,19.9.65a2.744,2.744,0,0,1,.63,1.06c.871,2.13,2.808,5.181,2.391,7.744A21.724,21.724,0,0,0,7.7,10.18C4.127,11.672,1.3,15.337.98,15.251-2.047,14.452,2.806,9.44,3.848,8.175Z" transform="translate(270.317 137.459) rotate(-9)" fill="#d67086"/><path d="M.03,5A4.3,4.3,0,0,0,.873,7.824c3.459,5.625,11.956,11.982,18.178,8.79-.676-.175-2.455-.277-3.836-.674C11.94,15,10,11.455,8.417,8.291,7.449,6.348,7.558.993,5.47.121,3.477-.714.341,2.988.03,5Z" transform="translate(252.073 139.338) rotate(-9)" fill="#c15d78"/><path d="M18.514,12.289a29.189,29.189,0,0,0-4.486-7.752A10.781,10.781,0,0,0,6.656.02,2.168,2.168,0,0,0,5.621.131a2.764,2.764,0,0,0-.927.8C3.2,2.68.412,4.966,0,7.538a21.754,21.754,0,0,1,14.228,5.45c2.927,2.535,4.47,6.9,4.8,6.919C22.153,20.092,19.108,13.815,18.514,12.289Z" transform="translate(251.711 136.385) rotate(-9)" fill="#d67086"/><path d="M0,0H59.911V50.531H0Z" transform="translate(244.203 152.633) rotate(0.1)" fill="#fff"/><path d="M0,0H68.1V12.759H0Z" transform="translate(240.107 152.627) rotate(0.1)" fill="#fbd759"/><path d="M56.637,9.075,29.55,4.735l-2.878-.54-.012.078L0,0,26.326,6.389,20.756,41.53l5.115.829L31.264,7.654l24.654,5.914Z" transform="translate(246.733 165.4) rotate(-9)" opacity="0.1"/><path d="M7.329,52.5,0,51.312,8.092.792A.921.921,0,0,1,9.135.009L14.668.9a.921.921,0,0,1,.745,1.07Z" transform="translate(261.814 152.533) rotate(-9)" fill="#d67086"/></g></svg>