<svg id="Group_175" data-name="Group 175" xmlns="http://www.w3.org/2000/svg" width="30" height="30" viewBox="0 0 30 30">
  <path id="Path_459" data-name="Path 459" d="M28.064,8.71A1.937,1.937,0,0,0,30,6.774V5.806a1.937,1.937,0,0,0-1.935-1.935H24.194V2.9a.969.969,0,0,0,.968-.968V.968A.969.969,0,0,0,24.194,0H.968A.969.969,0,0,0,0,.968v.968A.969.969,0,0,0,.968,2.9v9.953L0,11.942V30H19.12L5.8,17.419H19.355v8.226A1.453,1.453,0,0,0,20.806,27.1h7.742A1.454,1.454,0,0,0,30,25.645V13.065a1.454,1.454,0,0,0-1.452-1.452H24.194V8.71Zm-1.935-2.9H15.484V4.839H26.129ZM14.516,7.322,12.969,6.29l1.547-1.032Zm.968-.548H26.129v.968H15.484Zm13.548-.968v.968a.969.969,0,0,1-.968.968H27.1v-2.9h.968A.969.969,0,0,1,29.032,5.806ZM.968.968H24.194v.968H.968Zm0,28.064v-.968h.968V27.1H.968v-.968h.968v-.968H.968v-.968h.968v-.968H.968v-.968h.968V21.29H.968v-.968h.968v-.968H.968v-.968h.968v-.968H.968V14.187L16.686,29.032ZM29.032,13.065V25.645a.485.485,0,0,1-.484.484H20.806a.484.484,0,0,1-.484-.484V13.065a.484.484,0,0,1,.484-.484h7.742A.485.485,0,0,1,29.032,13.065Zm-5.806-1.452H15v.968h4.444a1.431,1.431,0,0,0-.089.484v.484H15v.968h4.355v1.935H4.775L1.935,13.77V2.9h21.29v.968H14.853L11.224,6.29,14.853,8.71h8.373Zm0,0" fill="#fff"/>
  <path id="Path_460" data-name="Path 460" d="M54.983,96h-3.2l-.841,6.306-1.321-1.651H48v.931h1.173l2.4,3L52.6,96.931h2.386Zm0,0" transform="translate(-45.207 -90.1)" fill="#fff"/>
  <path id="Path_461" data-name="Path 461" d="M143,138.344l-2,2-2-2-.658.658,2,2-2,2,.658.658,2-2,2,2,.658-.658-2-2,2-2Zm0,0" transform="translate(-129.905 -129.905)" fill="#fff"/>
  <path id="Path_462" data-name="Path 462" d="M248,160h6.983v.931H248Zm0,0" transform="translate(-232.818 -150.31)" fill="#fff"/>
  <path id="Path_463" data-name="Path 463" d="M48,308.8v8.1h8.576Zm.931,2.16,5.3,5.009h-5.3Zm0,0" transform="translate(-45.207 -289.694)" fill="#fff"/>
  <path id="Path_464" data-name="Path 464" d="M358.517,224H352v3.724h6.517Zm-.931,2.793h-4.655v-1.862h4.655Zm0,0" transform="translate(-330.379 -210.375)" fill="#fff"/>
  <path id="Path_465" data-name="Path 465" d="M416,320h2.793v.931H416Zm0,0" transform="translate(-390.655 -300.621)" fill="#fff"/>
  <path id="Path_466" data-name="Path 466" d="M352,368h2.793v.931H352Zm0,0" transform="translate(-330.623 -345.714)" fill="#fff"/>
  <path id="Path_467" data-name="Path 467" d="M352,400h2.793v.931H352Zm0,0" transform="translate(-330.623 -375.586)" fill="#fff"/>
  <path id="Path_468" data-name="Path 468" d="M352.931,306.793h.931v-.931h.931v-.931h-.931V304h-.931v.931H352v.931h.931Zm0,0" transform="translate(-330.623 -285.538)" fill="#fff"/>
  <path id="Path_469" data-name="Path 469" d="M420.206,370.344l-.6.6-.6-.6-.658.658.6.6-.6.6.658.658.6-.6.6.6.658-.658-.6-.6.6-.6Zm0,0" transform="translate(-392.863 -347.863)" fill="#fff"/>
</svg>
