<svg xmlns="http://www.w3.org/2000/svg" width="30" height="30" viewBox="0 0 30 30">
  <g id="Group_194" data-name="Group 194" transform="translate(-0.001 0)">
    <g id="Group_177" data-name="Group 177" transform="translate(14.742 14.086)">
      <g id="Group_176" data-name="Group 176">
        <path id="Path_470" data-name="Path 470" d="M252.588,240.59a.586.586,0,1,0,0,.829A.586.586,0,0,0,252.588,240.59Z" transform="translate(-251.587 -240.418)" fill="#fff"/>
      </g>
    </g>
    <g id="Group_179" data-name="Group 179" transform="translate(18.197 5.941)">
      <g id="Group_178" data-name="Group 178">
        <path id="Path_471" data-name="Path 471" d="M315.607,102.275a2.932,2.932,0,1,0,0,4.146A2.931,2.931,0,0,0,315.607,102.275Zm-.829,3.317a1.759,1.759,0,1,1,0-2.488A1.762,1.762,0,0,1,314.778,105.592Z" transform="translate(-310.603 -101.415)" fill="#fff"/>
      </g>
    </g>
    <g id="Group_181" data-name="Group 181" transform="translate(5.609 0)">
      <g id="Group_180" data-name="Group 180">
        <path id="Path_472" data-name="Path 472" d="M120.239.172A.584.584,0,0,0,119.8,0a26.049,26.049,0,0,0-7.042,1.458,19.633,19.633,0,0,0-7.45,4.518c-.434.434-.856.894-1.26,1.372a4.3,4.3,0,0,0-4.418-.255c-2.233,1.2-3.615,4.44-3.615,6.761a.587.587,0,0,0,1,.415,3.733,3.733,0,0,1,3.1-1.042l.205.205a20.625,20.625,0,0,0-.968,2.848,1.66,1.66,0,0,0,.071,1.019,5.553,5.553,0,0,0-1.584,1.116c-1.509,1.509-1.816,5.188-1.828,5.344a.586.586,0,0,0,.584.633l.046,0c.156-.012,3.835-.319,5.344-1.828a5.553,5.553,0,0,0,1.116-1.583,1.656,1.656,0,0,0,1.019.071,20.627,20.627,0,0,0,2.848-.968l.205.205a3.733,3.733,0,0,1-1.042,3.1.586.586,0,0,0,.415,1c2.321,0,5.566-1.382,6.761-3.615a4.3,4.3,0,0,0-.255-4.418c.478-.4.938-.826,1.372-1.26a19.634,19.634,0,0,0,4.518-7.449A26.049,26.049,0,0,0,120.41.607.586.586,0,0,0,120.239.172ZM97.329,12.593a6.775,6.775,0,0,1,2.858-4.466,3.124,3.124,0,0,1,3.123.147,23.71,23.71,0,0,0-2.464,4.016.618.618,0,0,0-.31-.182A5.012,5.012,0,0,0,97.329,12.593Zm3.836,9.14c-.806.806-2.7,1.232-3.893,1.405.174-1.2.6-3.087,1.405-3.893a4.226,4.226,0,0,1,1.5-.987l1.973,1.973A4.225,4.225,0,0,1,101.165,21.733Zm2.673-1.819a.55.55,0,0,1-.512-.166L102.178,18.6l-1.514-1.514a.551.551,0,0,1-.167-.512,19.041,19.041,0,0,1,.732-2.24l4.849,4.849A19.028,19.028,0,0,1,103.839,19.914Zm8.444.31a6.775,6.775,0,0,1-4.465,2.858,4.991,4.991,0,0,0,.481-3.22.612.612,0,0,0-.178-.3,23.718,23.718,0,0,0,4.016-2.464A3.125,3.125,0,0,1,112.283,20.224ZM113.6,14.27a21.282,21.282,0,0,1-1.691,1.517,22.529,22.529,0,0,1-4.675,2.9l-5.513-5.513a22.525,22.525,0,0,1,2.9-4.674,21.278,21.278,0,0,1,1.517-1.691,18.284,18.284,0,0,1,6.665-4.115L117.72,7.6A18.283,18.283,0,0,1,113.6,14.27Zm4.537-7.9-4.1-4.1a26.363,26.363,0,0,1,5.145-1.047A26.368,26.368,0,0,1,118.142,6.367Z" transform="translate(-96.018 0)" fill="#fff"/>
      </g>
    </g>
    <g id="Group_183" data-name="Group 183" transform="translate(11.427 24.026)">
      <g id="Group_182" data-name="Group 182">
        <path id="Path_473" data-name="Path 473" d="M197.68,410.293a.586.586,0,0,0-.829,0l-1.658,1.659a.586.586,0,1,0,.829.829l1.658-1.659A.586.586,0,0,0,197.68,410.293Z" transform="translate(-195.021 -410.121)" fill="#fff"/>
      </g>
    </g>
    <g id="Group_185" data-name="Group 185" transform="translate(3.144 15.743)">
      <g id="Group_184" data-name="Group 184">
        <path id="Path_474" data-name="Path 474" d="M56.252,268.873a.586.586,0,0,0-.829,0l-1.659,1.658a.586.586,0,1,0,.829.829l1.659-1.658A.586.586,0,0,0,56.252,268.873Z" transform="translate(-53.592 -268.701)" fill="#fff"/>
      </g>
    </g>
    <g id="Group_187" data-name="Group 187" transform="translate(4.972 24.856)">
      <g id="Group_186" data-name="Group 186">
        <path id="Path_475" data-name="Path 475" d="M89.825,424.443a.586.586,0,0,0-.829,0l-3.972,3.972a.586.586,0,0,0,.829.829l3.972-3.972A.586.586,0,0,0,89.825,424.443Z" transform="translate(-84.851 -424.271)" fill="#fff"/>
      </g>
    </g>
    <g id="Group_189" data-name="Group 189" transform="translate(0.286 24.856)">
      <g id="Group_188" data-name="Group 188">
        <path id="Path_476" data-name="Path 476" d="M9.825,424.443a.586.586,0,0,0-.829,0l-3.972,3.972a.586.586,0,0,0,.829.829l3.972-3.972A.586.586,0,0,0,9.825,424.443Z" transform="translate(-4.851 -424.271)" fill="#fff"/>
      </g>
    </g>
    <g id="Group_191" data-name="Group 191" transform="translate(0.001 19.884)">
      <g id="Group_190" data-name="Group 190">
        <path id="Path_477" data-name="Path 477" d="M4.974,339.582a.586.586,0,0,0-.829,0L.173,343.554a.586.586,0,1,0,.829.829l3.972-3.972A.586.586,0,0,0,4.974,339.582Z" transform="translate(-0.001 -339.41)" fill="#fff"/>
      </g>
    </g>
    <g id="Group_193" data-name="Group 193" transform="translate(16.399 11.6)">
      <g id="Group_192" data-name="Group 192">
        <path id="Path_478" data-name="Path 478" d="M281.7,198.162a.587.587,0,0,0-.829,0l-.829.829a.586.586,0,0,0,.829.829l.829-.829A.586.586,0,0,0,281.7,198.162Z" transform="translate(-279.871 -197.99)" fill="#fff"/>
      </g>
    </g>
  </g>
</svg>
